HIERARCHY
ROOT Hips
{
	OFFSET 0.000000 0.000000 0.000000
	CHANNELS 6 Xposition Yposition Zposition Yrotation Xrotation Zrotation
	JOINT Chest
	{
		OFFSET 0.000000 -0.009282 11.569106
		CHANNELS 6 Xposition Yposition Zposition Yrotation Xrotation Zrotation
		JOINT Chest2
		{
			OFFSET -0.000000 0.016863 9.269641
			CHANNELS 6 Xposition Yposition Zposition Yrotation Xrotation Zrotation
			JOINT Chest3
			{
				OFFSET -0.000000 0.000000 8.374491
				CHANNELS 6 Xposition Yposition Zposition Yrotation Xrotation Zrotation
				JOINT Chest4
				{
					OFFSET -0.000000 0.000000 8.374493
					CHANNELS 6 Xposition Yposition Zposition Yrotation Xrotation Zrotation
					JOINT Neck
					{
						OFFSET -0.000000 0.000001 12.152554
						CHANNELS 6 Xposition Yposition Zposition Yrotation Xrotation Zrotation
						JOINT Head
						{
							OFFSET -0.000000 0.040100 7.802319
							CHANNELS 6 Xposition Yposition Zposition Yrotation Xrotation Zrotation
							End Site
							{
								OFFSET -0.000000 0.020946 14.853096
							}
						}
					}
					JOINT RightCollar
					{
						OFFSET 2.894404 0.000001 6.791374
						CHANNELS 6 Xposition Yposition Zposition Yrotation Xrotation Zrotation
						JOINT RightShoulder
						{
							OFFSET 13.574684 0.000001 0.000000
							CHANNELS 6 Xposition Yposition Zposition Yrotation Xrotation Zrotation
							JOINT RightElbow
							{
								OFFSET 23.923903 0.000002 0.000000
								CHANNELS 6 Xposition Yposition Zposition Yrotation Xrotation Zrotation
								JOINT RightWrist
								{
									OFFSET 19.846718 0.012767 0.000000
									CHANNELS 6 Xposition Yposition Zposition Yrotation Xrotation Zrotation
									End Site
									{
										OFFSET 14.973145 0.000001 0.000000
									}
								}
							}
						}
					}
					JOINT LeftCollar
					{
						OFFSET -2.894404 0.000000 6.791374
						CHANNELS 6 Xposition Yposition Zposition Yrotation Xrotation Zrotation
						JOINT LeftShoulder
						{
							OFFSET -13.574684 -0.000001 0.000000
							CHANNELS 6 Xposition Yposition Zposition Yrotation Xrotation Zrotation
							JOINT LeftElbow
							{
								OFFSET -23.923903 -0.000002 0.000000
								CHANNELS 6 Xposition Yposition Zposition Yrotation Xrotation Zrotation
								JOINT LeftWrist
								{
									OFFSET -19.846718 0.012763 0.000000
									CHANNELS 6 Xposition Yposition Zposition Yrotation Xrotation Zrotation
									End Site
									{
										OFFSET -14.973145 -0.000001 0.000000
									}
								}
							}
						}
					}
				}
			}
		}
	}
	JOINT RightHip
	{
		OFFSET 9.469263 0.004643 0.045487
		CHANNELS 6 Xposition Yposition Zposition Yrotation Xrotation Zrotation
		JOINT RightKnee
		{
			OFFSET 0.000000 0.002666 -40.478676
			CHANNELS 6 Xposition Yposition Zposition Yrotation Xrotation Zrotation
			JOINT RightAnkle
			{
				OFFSET 0.000000 0.049110 -35.224068
				CHANNELS 6 Xposition Yposition Zposition Yrotation Xrotation Zrotation
				JOINT RightToe
				{
					OFFSET -0.000001 12.539530 -6.151390
					CHANNELS 6 Xposition Yposition Zposition Yrotation Xrotation Zrotation
					End Site
					{
						OFFSET -0.000001 5.044996 -1.291870
					}
				}
			}
		}
	}
	JOINT LeftHip
	{
		OFFSET -9.469263 0.004641 0.045487
		CHANNELS 6 Xposition Yposition Zposition Yrotation Xrotation Zrotation
		JOINT LeftKnee
		{
			OFFSET 0.000000 0.002666 -40.478676
			CHANNELS 6 Xposition Yposition Zposition Yrotation Xrotation Zrotation
			JOINT LeftAnkle
			{
				OFFSET 0.000000 0.049110 -35.224068
				CHANNELS 6 Xposition Yposition Zposition Yrotation Xrotation Zrotation
				JOINT LeftToe
				{
					OFFSET -0.000001 12.539530 -6.151390
					CHANNELS 6 Xposition Yposition Zposition Yrotation Xrotation Zrotation
					End Site
					{
						OFFSET -0.000001 5.044996 -1.291870
					}
				}
			}
		}
	}
}
MOTION
Frames: 5
Frame Time: 0.016667
11.970421 6.387797 83.068260 -6.964757 -3.858102 -109.495507 -0.000001 -0.009282 11.569106 0.004146 -1.853205 -1.234676 0.000000 0.016862 9.269637 0.017958 -0.819837 -0.553754 -0.000001 0.000001 8.374491 0.017958 -0.819837 -0.553753 -0.000001 0.000001 8.374507 0.012725 -0.614894 -0.415283 0.000001 -0.000000 12.152563 1.852518 -15.909179 -2.038827 -0.000001 0.040102 7.802308 2.706039 6.652576 -3.121181 2.894405 -0.000000 6.791381 0.219333 0.597556 1.880858 13.574686 0.000004 0.000012 59.602403 -2.646327 56.631936 23.923903 0.000005 -0.000005 20.804492 -16.683297 57.997486 19.846708 0.012751 0.000004 -31.357552 36.065643 26.804283 -2.894404 -0.000001 6.791379 -4.929616 -3.219142 -9.214758 -13.574684 0.000001 0.000004 -49.102302 -2.004670 -56.210913 -23.923904 0.000007 -0.000009 -24.391331 -36.453116 -62.174447 -19.846722 0.012765 0.000001 -49.797936 9.943198 14.941502 9.469262 0.004644 0.045495 0.628842 -10.855098 -3.045114 0.000019 0.002662 -40.478840 0.251570 -3.509501 -0.411525 0.000057 0.049097 -35.223816 0.909404 5.566518 -1.130392 -0.000001 12.539524 -6.151396 -0.114233 0.049200 0.026246 -9.469262 0.004641 0.045491 0.541577 -10.870462 -1.736983 -0.000082 0.002664 -40.478752 0.573105 -1.803479 1.723768 0.000068 0.049100 -35.223827 -0.317721 5.197857 -1.568452 0.000002 12.539535 -6.151403 0.000572 -0.108897 -0.028086 
11.980971 6.442467 83.069420 -7.082638 -3.853276 -108.992040 -0.000000 -0.009282 11.569116 -0.095118 -1.956153 -1.293515 0.000000 0.016864 9.269624 -0.021088 -0.864964 -0.596751 0.000000 0.000002 8.374481 -0.021088 -0.864965 -0.596753 0.000001 -0.000001 8.374491 -0.016661 -0.648704 -0.447585 0.000001 0.000003 12.152552 1.998528 -15.903175 -2.157023 -0.000001 0.040099 7.802307 2.934773 6.665559 -3.287965 2.894405 0.000001 6.791371 0.069093 1.031328 1.653053 13.574681 0.000004 0.000002 58.756224 -2.401889 54.832281 23.923912 0.000006 -0.000002 20.637563 -16.920247 51.707148 19.846708 0.012771 -0.000004 -30.097454 22.220385 23.572405 -2.894403 0.000001 6.791377 -5.160304 -2.548510 -9.416183 -13.574684 0.000000 -0.000010 -49.863311 -2.836412 -55.619446 -23.923899 0.000004 0.000001 -31.545942 -34.104668 -61.556260 -19.846720 0.012747 0.000003 -48.948851 13.497367 3.647114 9.469262 0.004642 0.045490 0.625549 -10.954486 -2.882348 0.000031 0.002661 -40.478844 0.321361 -3.624182 -0.691411 0.000073 0.049094 -35.223804 0.823061 5.639144 -1.485879 -0.000002 12.539527 -6.151392 -0.027056 0.074342 0.033051 -9.469263 0.004642 0.045492 0.574096 -10.939483 -1.705236 -0.000075 0.002665 -40.478745 0.564855 -1.739792 1.543161 0.000086 0.049100 -35.223835 -0.361779 5.166159 -1.848702 -0.000000 12.539535 -6.151402 0.042753 -0.160660 -0.027301 
11.968736 6.509797 83.068787 -7.134305 -3.827122 -108.609188 -0.000001 -0.009284 11.569108 -0.079226 -1.993566 -1.446690 -0.000000 0.016865 9.269639 -0.019191 -0.881576 -0.676251 0.000000 0.000001 8.374489 -0.019192 -0.881576 -0.676247 -0.000000 0.000000 8.374485 -0.015369 -0.661161 -0.507209 0.000001 0.000001 12.152552 1.973854 -15.874748 -2.157238 -0.000002 0.040101 7.802310 2.888427 6.718108 -3.297218 2.894405 0.000002 6.791377 -0.181178 0.842523 1.888972 13.574684 0.000001 -0.000011 56.685038 -2.174338 53.263260 23.923903 0.000019 0.000004 22.389731 -17.069234 48.088056 19.846708 0.012762 -0.000004 -25.341177 4.981489 15.169471 -2.894403 0.000000 6.791378 -5.488662 -2.335853 -9.359222 -13.574685 0.000001 0.000004 -51.298365 -3.473397 -55.656141 -23.923893 0.000021 -0.000002 -39.752186 -30.846664 -60.297047 -19.846720 0.012772 0.000004 -44.310897 18.069668 -6.088572 9.469262 0.004643 0.045492 0.603581 -10.921156 -2.660314 0.000042 0.002659 -40.478851 0.387065 -3.806780 -0.927081 0.000089 0.049093 -35.223808 0.688166 5.720827 -1.832737 -0.000003 12.539528 -6.151391 0.080745 0.086006 0.038210 -9.469265 0.004641 0.045488 0.574822 -10.902092 -1.695736 -0.000070 0.002665 -40.478756 0.559796 -1.745149 1.490503 0.000093 0.049099 -35.223835 -0.403830 5.135876 -2.107491 -0.000001 12.539536 -6.151404 0.077646 -0.184720 -0.028105 
11.929143 6.579869 83.075882 -7.171829 -3.792754 -108.417690 0.000000 -0.009281 11.569111 0.041202 -1.972235 -1.694798 0.000001 0.016861 9.269638 0.023237 -0.873876 -0.793296 -0.000001 -0.000000 8.374490 0.023237 -0.873876 -0.793293 -0.000000 -0.000001 8.374494 0.016294 -0.655439 -0.594926 -0.000001 0.000002 12.152559 1.734912 -15.790810 -2.014522 -0.000001 0.040102 7.802293 2.494530 6.871161 -3.118444 2.894404 0.000000 6.791379 -0.455304 0.011900 2.422143 13.574681 0.000000 -0.000007 54.528242 -2.417957 52.269221 23.923904 0.000008 0.000000 21.435060 -19.445678 47.654705 19.846718 0.012771 -0.000007 -14.708899 -6.261909 6.363452 -2.894405 -0.000001 6.791372 -5.909122 -2.437004 -8.970660 -13.574680 0.000002 0.000005 -53.088048 -3.438071 -55.827077 -23.923903 0.000010 0.000007 -45.403935 -28.105448 -60.413481 -19.846718 0.012770 -0.000001 -38.324509 25.378126 -15.487816 9.469263 0.004644 0.045489 0.547552 -10.803445 -2.441128 0.000047 0.002659 -40.478855 0.438278 -4.050275 -1.037961 0.000101 0.049093 -35.223801 0.540354 5.787789 -2.099160 -0.000002 12.539530 -6.151386 0.178529 0.095673 0.040911 -9.469263 0.004641 0.045485 0.539824 -10.834430 -1.646190 -0.000069 0.002664 -40.478756 0.549813 -1.788976 1.484434 0.000101 0.049098 -35.223831 -0.439925 5.087439 -2.268817 0.000002 12.539534 -6.151402 0.105831 -0.171406 -0.027407 
11.868810 6.639458 83.089706 -7.170664 -3.771944 -108.503743 -0.000000 -0.009283 11.569118 0.173277 -1.993606 -1.927117 -0.000000 0.016862 9.269638 0.069938 -0.886710 -0.899757 -0.000000 -0.000000 8.374475 0.069937 -0.886709 -0.899757 -0.000001 -0.000000 8.374485 0.051147 -0.665137 -0.674702 -0.000001 0.000001 12.152576 1.435361 -15.582742 -1.787644 -0.000001 0.040106 7.802299 2.017140 7.254165 -2.805179 2.894403 -0.000000 6.791388 -0.580527 -0.660756 2.722095 13.574684 0.000001 0.000009 53.457124 -2.587331 51.926076 23.923901 0.000004 0.000002 20.530324 -24.257769 50.120447 19.846716 0.012752 -0.000002 3.340161 -12.688059 -4.579939 -2.894404 -0.000000 6.791385 -6.173630 -2.642588 -8.640042 -13.574683 -0.000001 0.000009 -53.905151 -3.174766 -56.137670 -23.923903 -0.000000 -0.000008 -45.816291 -26.342305 -61.482740 -19.846720 0.012768 0.000004 -28.906163 33.304173 -25.197259 9.469261 0.004642 0.045497 0.478286 -10.604438 -2.227869 0.000045 0.002659 -40.478886 0.475732 -4.305552 -1.010342 0.000108 0.049092 -35.223797 0.399586 5.812876 -2.264568 -0.000002 12.539529 -6.151393 0.245965 0.104461 0.040828 -9.469263 0.004640 0.045490 0.492267 -10.764342 -1.513723 -0.000070 0.002665 -40.478756 0.525959 -1.817877 1.477609 0.000102 0.049095 -35.223843 -0.455976 5.018862 -2.267736 -0.000002 12.539533 -6.151400 0.122550 -0.128938 -0.023956 
